<?xml version="1.0" encoding="UTF-8"?>
<svg id="Layer_1" xmlns="http://www.w3.org/2000/svg" version="1.1" viewBox="0 0 852.16 1011.38">
  <!-- Generator: Adobe Illustrator 30.0.0, SVG Export Plug-In . SVG Version: 2.1.1 Build 123)  -->
  <path d="M116,147.89v219h164v-219h86v141c1.75.44,2-.72,3.01-1.49,4.39-3.37,8.65-9.19,12.98-13.02,37.46-33.15,86.07-55.45,136.29-59.35,6.79,5.36,13.57,11.83,21.72,14.88-10.05,18.33,4.31,26.97,18.07,35.56.18,1.16-7.35,12.1-8.64,13.36-3.71,3.62-11.7,4.86-15.41,7.59-3.1,2.28-5.57,8.86-8,12-78.39.09-135.49,69.11-140.06,143.94l.04,229.54h-106v-223H116v223H30V147.89h86Z"/>
  <path d="M471,589.89c38.72,17.24,83.45,21.57,124,7.99l-42.98-44.49,49.34-46.43,52,53.85c37.08-36.96,53.12-86.13,46.51-138.3-4.9-38.69-26.75-72.26-55.71-97.27-.57-3.03,10.89-13.21,12.37-16.37,2.49-5.31-5.57-5.32-8.95-4.89-27.66,3.52-44.42,54.77-65.26,69.73-10,7.18-27.4,10.34-32.31-3.82,15.35,3.97,24.53-10.33,30.17-22.32,8.97-19.1,14.17-39.86,28.82-56.15l-7.02-4.08-33.45,38.61c-2.45,2.73-5.35-1.76-7.88-.99-2.19.66-6,10.09-10.36,10.73-6.77.99-24-14.38-29.1-19.3l3.39-4.35c6.81,2.26,11.38.78,14.32-5.83l-2.95-3.77,6.12-8.98c14.64-3.56,20.76-19.23,30.9-29.08-4.9-4.89-26.33-16.19-25.99-22.91.08-1.69,1.66-4.03,2.58-5.52,4.12-6.74,23.49-29.91,29.39-35.6.8-.77,1.7-2.07,2.75-2.33,4.75-1.22,24.84,17.82,30.82,19.9l15.95-18.06,3.3-58.7,75.14-115.17c-6.17-3.27-8.24-3.7-4.72-10.41,2.53-4.82,10.1-16.68,16.05-15.5,30.93,18.56,61.21,40.13,89.22,62.84,9.56,7.75,39.36,31.69,43.61,41.39,1.45,3.31,1.51,6.65-.2,9.96-.69,1.33-10.72,13.44-11.82,14.18-6.15,4.1-11.25-2.58-15.62.37l-73.92,80.09c-6.38,6.44-8.68,9.12-18.13,10.87-21.51,3.96-44.99,3.92-66.61,8.39l-14.75,16.23c6.96,7.69,54.89,34.91,56.77,41.2.42,1.39.44,3.37.27,4.83-.81,6.85-20.99,26.41-25.04,33.97,6.75,4.34,17.52,15.53,25.71,12.74,5.74-1.96,19.96-19.97,21.04-25.97.55-3.06-.49-5.37-.28-8.26,77.74,88.14,68.62,237.61-19.48,315.5l59.98,60.5h-88.5l-25.97-23.98c-55.61,31.67-122.96,35.39-183.53,15.98v-81ZM770,73.88l-61.99-45.99c.02,3.14-.78,5.51,1.45,8.04,4.13,4.67,17.53,10.42,22.62,15.38l37.92,22.57ZM722.99,61.91c-3.99-.35-7.78-8.21-11.47-4.99-22.54,30.41-42.66,62.61-60.52,95.97l71.99-90.97Z"/>
  <path d="M449.99,856.91l-11.48,14.97c-7.14-2.57-19.92-15.59-26.26-16.79-5.13-.97-15.57,2.33-22.79,1.83-59.37-4.08-57.46-112.87-1.95-118.02,58.87-5.46,67.21,66.92,40.48,104.44l22,13.56ZM389.76,756.15c-29.51,4.4-28.88,74.54-3.31,81.79,34.86,9.89,37.64-38.62,32.08-61.08-3.55-14.35-13.49-22.99-28.77-20.71Z"/>
  <path d="M157.5,861.89c3.12,7.15,7.69,11.82,16.04,12.03,17.57.44,17.19-17.02,18.45-30.03-9.66,10.14-21.89,12.65-34.98,7.49-21.19-8.35-23.13-41.11-16.77-59.74,7.95-23.28,32.63-30.22,51.75-14.74v-6h19.01v89.5c0,5.87-7.63,17.87-12.5,21.5-17.78,13.25-60.92,9.05-60.5-20h19.5ZM164.36,833.53c7.62,7.64,19.9,5.56,24.42-4.37,4.66-10.23,5.99-38.8-6.76-43.79-24.74-9.68-30.55,35.24-17.66,48.16Z"/>
  <path d="M21,739.89v48h43v-48h19.5l1.5,1.5v113.5h-21c-.27-.73,1-1.2,1-1.5v-47l-1.5-1.5H21v50H0v-115h21Z"/>
  <path d="M249,733.89v44c12.3-12.91,37.05-13.08,45.56,3.95.73,1.47,3.44,8.54,3.44,9.55v63.5h-21c2.51-4.99.11-10.33-.05-15.45-.4-13.01,1.24-26.25,1.08-38.99-.13-9.96-5.82-16.99-16.29-15.32-5.18.83-12.74,6.92-12.74,12.27v57.5h-21v-121h21Z"/>
  <path d="M608,854.89h-19c.69-11.8-1.31-5.83-7.08-2.58-22.21,12.51-46.39-.12-42.83-26.83,2.15-16.15,20.26-22.36,34.45-22.6,3.95-.07,9.56,1.97,12.83.88,3.56-1.19.85-15.91-1.34-18.38-2.87-3.24-12.14-3.23-16.08-2.03-5.68,1.73-6.26,9.89-7.09,10.41-.89.56-15.79.91-17.77.66-.95-.12-1.39.27-2.06-1.08.71-15.07,13.25-24.1,27.49-25.42,14.52-1.35,33.25,1.16,37.05,17.92.35,1.53,1.44,8.41,1.44,9.56v59.5ZM588,815.89h-14.5c-1.63,0-9,3.04-10.55,4.45-6.73,6.14-4.48,19.05,4.61,20.49,18.27,2.91,20.3-10,20.44-24.94Z"/>
  <path d="M771,770.89l16.5,61.01,16.5-61.01h21l-31.83,97.67c-2.58,8.22-12.61,19.33-21.67,19.33h-15.5v-16c10.61,3.81,19.91-2.35,20.95-13.42l-27.95-87.58h22Z"/>
  <rect x="404" y="596.89" width="51" height="75"/>
  <path d="M478,770.89v58.5c0,.8,4.27,7.56,5.48,8.52,6.79,5.44,16.88,1.67,20.73-5.32.42-.76,2.79-6.82,2.79-7.21v-54.5h21c.27.73-1,1.2-1,1.5v82.5h-19c1.49-12.86-3.85-4.06-9.67-1.17-15.21,7.54-35.48,3.27-39.89-14.76-3.04-22.49.84-45.36-.44-68.06h20Z"/>
  <path d="M778,987.89c-1.02,11.84,15.97,14.1,21.99,6.49,4.71-5.95,3.53-13.5,5-20.49-3.62.94-4.99,4.1-8.62,5.87-9.06,4.43-21.98,1.37-28.38-6.37-9.05-10.95-8.83-35.08-3.76-47.76,6.69-16.71,26.8-22.02,40.26-9.75l.49-4.99h14v74.5c0,1.68-2.15,9.06-2.98,11.02-9.73,23.06-54.06,18.9-55.02-8.52h17ZM790.79,921.1c-17.07,1.26-17.43,28.58-11.67,40.17,5.81,11.7,19.59,10.21,23.91-1.84,3.76-10.5,4.84-39.59-12.24-38.33Z"/>
  <path d="M145,910.89l11.5,55.01,12.51-55,14.51.98,12.98,52.03,11.5-53.01h14c.51,4.92-1.14,9.52-2.28,14.22-4.63,18.91-11.48,37.55-16.68,56.32l-14.56-.52-11.98-49.03-12.98,49.03-14.05,1.05-19.46-71.07h15Z"/>
  <path d="M285,880.89v99.5c-1.61,2.41-12.58,2.01-13.57.57-1.18-1.58.92-5.59-1.94-5.08-7.77,6.6-14.9,8.95-25.04,6.07-20.73-5.9-21.8-43.68-13.33-59.43,7.77-14.46,26.79-17.8,38.88-6.62v-35h15ZM254.74,921.1c-7.3,1.42-12.05,10.47-12.73,17.3-1.22,12.23-.95,34.4,16.51,32.52,13.32-1.44,13.07-27.67,11.25-37.29-1.33-7.07-7.18-14.05-15.02-12.52Z"/>
  <path d="M15,976.89v33H1v-99h14v6c11.34-11.52,31.05-10.14,38.82,4.68,6.05,11.54,5.66,35.21.37,47.02-7.05,15.72-26.26,19.15-39.19,8.31ZM20.34,967.55c4.84,4.89,14.65,4.8,18.93-.89,8.13-10.83,8.3-48.94-12.51-45.55-15.01,2.44-14.4,38.38-6.42,46.45Z"/>
  <path d="M726,748.89v22h17v15h-15.5c-.3,0-.77-1.27-1.5-1v49.5c0,.34,1.55,3.53,1.98,4.02,3.92,4.59,10.72.96,11.55,2.42l.42,14c-12.59,1.87-29.75,3.91-33.51-11.89-2.64-11.12-.38-25.95-.39-37.52,0-3.14.64-20.13-1.5-20.31l-12.1-.16-.44-14.07,12.39-.11c2.48-.93.62-2,.62-2.38v-19.5h21Z"/>
  <path d="M562,930.89c.05-18.21,19.91-24.54,35.23-20.73,13.4,3.34,15.07,11.84,15.82,24.18.94,15.69-1.61,32.11.96,47.53l-12.86-.13-1.64-6.86c-12.23,14.27-37.84,10.26-39.54-10.46-1.97-23.96,18.86-26.95,37.94-26.64,1.01-4.82,1.39-14.22-3.65-16.65-7.36-3.54-17.79.81-17.25,9.74h-15ZM598,947.89c-.71-.71-12.22.72-14.24,1.26-16.36,4.37-10.15,26.29,5.27,22.27,9.53-2.49,9.55-15.63,8.97-23.53Z"/>
  <path d="M352,949.89h-39.5c-.13,0-2.31-1.92-2.47.48-.06.98,1.46,8.46,1.92,10.07,3.87,13.52,22.6,14.94,25.05.45h15c-3.9,25.44-41.26,30.32-52.4,7.9-9.11-18.33-5.9-52.43,17.2-58.61,11.95-3.19,26.3.91,31.75,12.66.69,1.49,3.45,9.59,3.45,10.55v16.5ZM320.74,921.14c-6.04,1.55-10.29,11.96-10.29,17.79l27.6.49c.88-11.05-4.63-21.53-17.31-18.28Z"/>
  <rect x="625" y="733.89" width="20" height="121"/>
  <path d="M91.75,909.15c43.88-5.66,43.09,69.23,10.66,73.65-48.84,6.66-45.89-69.11-10.66-73.65ZM93.76,921.08c-16.88,3.18-17.45,51.73,2.72,50.89,15.18-.63,15.92-27.65,13.07-38.12-1.87-6.86-7.84-14.27-15.79-12.77Z"/>
  <path d="M750,981.89h-15v-51.5c0-1.37-3.02-6.47-4.48-7.52-7.54-5.44-19.52,1.84-19.52,10.52v48.5h-15v-71h14l.5,7c7.1-10.1,25.56-12.36,33.94-2.93,1.21,1.36,5.56,9.15,5.56,10.44v56.5Z"/>
  <path d="M519.79,909.16c47.46-4.27,41.13,87.06-7.01,72.45-28.99-8.8-27.35-69.36,7.01-72.45ZM519.73,921.12c-16.65,3.41-14.6,45.86-2.03,49.57,25.68,7.57,25.99-54.47,2.03-49.57Z"/>
  <path d="M487,958.89c-7.68,32.77-51.8,32.46-55.89-2.61-1.02-8.72-.33-21.51,3.12-29.67,10.96-25.97,49.69-22.65,52.78,6.28h-16c-1.86-12.22-12.42-16.87-20.41-5.91-5.04,6.91-5.33,17.07-4.57,25.4,1.87,20.63,17.91,27.35,26.48,6.52h14.5Z"/>
  <rect x="103" y="770.89" width="21" height="84"/>
  <rect x="663" y="770.89" width="20" height="84"/>
  <path d="M645,891.89v19l13.02.58v10.43s-13.02,0-13.02,0v43.5c0,3.98,8.57,6.74,12.01,5.49v11.01h-17.51c-1.9,0-8.5-7.3-8.5-9.5v-50.5l-12.02-.58v-10.43s12.02,0,12.02,0v-19h14Z"/>
  <path d="M363,910.89h13.01s.49,10,.49,10c3.51-6.79,8.99-11.74,17.06-12.03,7.79-.28,3.35,9.61,4.46,15.04-8.13-.83-15.69,3-18.91,10.59-.45,1.07-2.1,6.25-2.1,6.9v40.5h-14v-71Z"/>
  <rect x="666" y="910.89" width="15" height="71"/>
  <polygon points="545.64 193.95 563.98 206.39 548.51 223.61 531.02 211.39 545.64 193.95"/>
  <rect x="662" y="736.89" width="21" height="18"/>
  <rect x="103" y="736.89" width="20" height="18"/>
  <path d="M711.51,299.89c8.84,6.87,7.04,11.9.46,19.47-6.1,7.02-8.44,7.38-15.92,1.05l15.46-20.51Z"/>
  <rect x="666" y="880.89" width="15" height="16"/>
</svg>